# xmcd
# 
# Track frame offsets:
#     150
#     20293
#     55763
#     76913
#     109510
#     138035
#     152938
#     180850
# 
# Disc length: 2704
# 
# Revision: 2
# Processed by: cddbd v1.5.2PL0 Copyright (c) Steve Scherf et al.
# Submitted via: fre:ac v1.0.31
# 
DISCID=4f0a8e08
DTITLE=Angel Dance 03 - Angel Dance 03 - Khiêu Vũ Tango Rumba ChaChaCha - Người Đẹp Bình Dương Productions
DYEAR=1991
DGENRE=Instrumental
TTITLE0=Angel Dance 03-A - Paso - Khúc Ca Muôn Thuở
TTITLE1=Angel Dance 03-B - Rumba - Đò Chiều - Lạnh Trọn Đêm Mưa
TTITLE2=Angel Dance 03-C - Chachacha - Bambino - It's Now or Never
TTITLE3=Angel Dance 03-D - Tango - Tango Dĩ Vãng - Tình Cho Không
TTITLE4=Angel Dance 03-E - Slow  - Tôi Đưa Em Sang Sông - Yêu Em Vào Cõi Chết
TTITLE5=Angel Dance 03-F - New Wave - Kimigasuki
TTITLE6=Angel Dance 03-G - Rumba - Người Yêu Cô Đơn - Cô Hàng Xóm
TTITLE7=Angel Dance 03-H - ChaChaCha - Mưa Đêm Độc Hành
EXTD=
EXTT0=
EXTT1=
EXTT2=
EXTT3=
EXTT4=
EXTT5=
EXTT6=
EXTT7=
PLAYORDER=
